<svg xmlns="http://www.w3.org/2000/svg" viewBox="0 0 124.77 200"><defs><style>.a,.b{fill:#fff;}.b,.c,.d{fill-rule:evenodd;}.c{fill:#1d1d1b;}.d{fill:#0069b3;}.e{fill:none;stroke:#1d1d1b;stroke-miterlimit:2.61;stroke-width:0.22px;}</style></defs><path class="a" d="M62.39,198C29.12,198,2.05,154,2.05,100S29.12,2.05,62.39,2.05,122.72,46,122.72,100,95.66,198,62.39,198Z"/><path class="a" d="M62.39,4.1C94.58,4.1,120.67,47,120.67,100s-26.09,95.9-58.28,95.9S4.1,153,4.1,100,30.2,4.1,62.39,4.1m0-4.1C45.33,0,29.45,10.68,17.67,30.06,6.27,48.81,0,73.64,0,100s6.27,51.19,17.67,69.94C29.45,189.32,45.33,200,62.39,200s32.93-10.68,44.71-30.06c11.4-18.75,17.67-43.58,17.67-69.94S118.5,48.81,107.1,30.06C95.32,10.68,79.44,0,62.39,0Z"/><path class="b" d="M16.23,158.44c10.68,22.76,27.4,37.46,46.16,37.46,32.1,0,58.28-43.08,58.28-95.9,0-20.8-4.06-40.1-11-55.84l-1.09-2.42C98,18.88,81.19,4.1,62.39,4.1,30.28,4.1,4.1,47.18,4.1,100c0,20.89,4.1,40.25,11,56l1.1,2.41Z"/><path class="c" d="M109.72,44.16c6.89,15.74,11,35,11,55.84,0,52.82-26.18,95.9-58.28,95.9-18.76,0-35.48-14.7-46.16-37.46l12.22-14.93a56.25,56.25,0,0,0,71.19-87l10.08-12.33Zm-77.8,95.1L96.16,60.74a50.76,50.76,0,0,1-64.24,78.52Z"/><path class="d" d="M62.39,4.1c18.8,0,35.57,14.78,46.24,37.64L97.82,55A56.25,56.25,0,0,0,26.59,142L15.13,156c-6.93-15.78-11-35.14-11-56C4.1,47.18,30.28,4.1,62.39,4.1Zm32,55.09L30.06,137.78A50.77,50.77,0,0,1,94.35,59.19Z"/><path class="b" d="M61.35,148.05c-1.17-1.75-2.43-3.59-3.76-5.47-4.44-6.29-8.63-11.7-11.44-14.87v0h0a8.1,8.1,0,0,0-3.4-2.35,10.54,10.54,0,0,0-2.28-.67c-9.78-1.05-17.06-3.93-16.93-7a2.78,2.78,0,0,1,1.23-2h0a3.47,3.47,0,0,0-.29.25h0c.45-.35.79-2.39.79-4.83,0-.38,0-.74,0-1.08a1.78,1.78,0,0,1-.27-1,1.87,1.87,0,0,1,.15-.78,2.14,2.14,0,0,1-.08-.58v-.12a1.67,1.67,0,0,1,.37-1.14.48.48,0,0,0,.3-.15h0l.05-.12a1.88,1.88,0,0,0,.27-1V105c0-.25.06-.51.07-.79a5.56,5.56,0,0,0-.26-2.18h0a.9.9,0,0,0-.11-.22l0,0-.11-.1-.06-.06-.12-.12-1.89-1.84a2,2,0,0,1-.77-1.53A2,2,0,0,1,24,96.34l8.16-8.94c.59-.45,1.22-2.06,1.52-4,.06-.34.1-.67.13-1,.24-1,1.89-3.5,4.11-6.26a47.38,47.38,0,0,1,3.61-4h0l0,0h0a3.91,3.91,0,0,0,.57-1.82c.15-3.18,2.3-6,5.49-7.6l0,0,0,0a9.63,9.63,0,0,1,4.36-1,11,11,0,0,1,1.92.18c1.93.23,4,.54,6,.91a80.17,80.17,0,0,1,16,4.43,40.59,40.59,0,0,0,6.72,2.53c8.59,2.39,16.67,1.77,20.33-1.19l.15.2c.88-.75,2.51.46,3.55.46,0,.14.55.55.55.69,1.51.69,2.2,3.86,2.61,5.24l2.2,5.52c1.92,4.42,1.37,10.21,2.47,14.77.83,3.59.14,8.69,0,12.42a19.25,19.25,0,0,1-.55,2.76l-2.06,8c-.14.83-1,2.21-1,3.18-.28.27-.55,1-.83,1.24v.27c-.13,0-.55.28-.55.56-.13,0-.41.13-.55.13l-.41.42-2.47.14c0,.06-.09.09-.19.11l-.07.13h-1.84a49.16,49.16,0,0,1-41.77,23.38Z"/><path class="b" d="M23.35,45.43l-1.3-5.64,0,0,4.49,3.57-3.22,2.09Zm4.53-1.18,3,2.36,1.53-1L21.91,37.68l-1.59,1,2.84,12.9,1.44-.94L23.72,47l4.16-2.71Z"/><polygon class="b" points="25.69 34.75 34.79 30.53 35.42 31.87 31.62 33.63 36.2 43.51 34.69 44.21 30.11 34.34 26.31 36.1 25.69 34.75 25.69 34.75"/><path class="b" d="M41.35,36l.43-5.77h0L45,35l-3.69,1Zm4.67.22,2.16,3.13,1.75-.49L42.27,28.16l-1.82.52L39.33,41.84,41,41.37l.27-3.81L46,36.21Z"/><polygon class="b" points="53.08 36.58 59.3 35.83 59.48 37.29 51.6 38.26 50.09 25.98 51.75 25.78 53.08 36.58 53.08 36.58"/><path class="b" d="M64.87,32.45l2.46-5.24h0l1.32,5.59-3.82-.35Zm4.29,1.88L70.05,38l1.81.17L68.53,25.47l-1.88-.17L60.89,37.18l1.71.16,1.62-3.47,4.94.46Z"/><polygon class="b" points="84.95 28.68 86.5 29.14 82.96 40.99 81.16 40.45 78 29.09 77.96 29.08 75.11 38.65 73.56 38.19 77.09 26.34 78.99 26.91 82.06 38.24 82.09 38.25 84.95 28.68 84.95 28.68"/><polygon class="b" points="88.58 29.8 97.69 34.04 97.06 35.38 93.27 33.62 88.68 43.48 87.17 42.78 91.75 32.91 87.96 31.15 88.58 29.8 88.58 29.8"/><path class="b" d="M96.45,42.05l4.68-3.42,0,0-1.52,5.54-3.19-2.14Zm2.87,3.7-1,3.67,1.51,1L103,37.68l-1.57-1.06L90.69,44.29l1.43,1L95.2,43l4.12,2.76Z"/><path class="b" d="M39.56,171.1l-1.93-.61,3.26-10.25-3.37-1.07.46-1.44c2.39.58,3.43.67,4.75-1.51l1.42.45L39.56,171.1Z"/><path class="b" d="M52.26,167.45c-1.26-.15-3-.74-2.66-3.62.25-2,1.57-3.24,3.32-3,2.16.26,2.85,1.86,2.64,3.57-.36,3-2.32,3.19-3.3,3.07Zm-.48,1.65a3.86,3.86,0,0,0,3.66-1.37l0,.05c-.94,3.83-2.24,5.42-4.29,5.17a2.41,2.41,0,0,1-2.25-2.76L47.05,170c-.17,1.45.46,4.13,4,4.56,5.17.63,6.28-6.19,6.48-7.8.3-2.43.38-7-4.41-7.6-3.16-.39-5.12,1.82-5.45,4.56a4.53,4.53,0,0,0,4.13,5.42Z"/><path class="b" d="M70.81,167.17c.24,3.78-.61,6.12-2.78,6.26s-3.3-2.08-3.53-5.86.61-6.12,2.78-6.26,3.3,2.08,3.53,5.86Zm2-.12c-.19-3.14-1.32-7.7-5.66-7.43s-4.89,4.94-4.69,8.07,1.32,7.7,5.66,7.43,4.89-4.94,4.69-8.07Z"/><path class="b" d="M75.29,158.67l10-2.87.46,1.6a26.21,26.21,0,0,0-2.36,14.35l-2,.57c-.64-4.13.51-10.1,2.38-14.15l-8,2.28-.51-1.78Z"/><path class="c" d="M65.24,72.54a25.37,25.37,0,0,0-7.65-1.11,22,22,0,0,0-10.3,2.24c.06-.18.13-.36.2-.54,2.24-2.91,8.66-4.75,16.07-4.32a34.08,34.08,0,0,1,5.46.75,71.13,71.13,0,0,1,11.91,4.13,40.64,40.64,0,0,0,6.61,2.79c6.44,2.09,12.65,2.42,16.93,1.24l0,0c-1.88,5-12,5.93-22.47,2A40.5,40.5,0,0,1,75.5,76.7a68.69,68.69,0,0,0-10.26-4.19v0Z"/><path class="c" d="M90.52,86.07a26.61,26.61,0,0,0,7.84.72,21,21,0,0,0,10-2.73c0,.18-.08.36-.13.54-1.82,3-8,5.14-15.5,5.08a38.32,38.32,0,0,1-5.59-.46,80.07,80.07,0,0,1-12.56-3.49,46.15,46.15,0,0,0-7-2.43c-6.77-1.74-13-1.76-17.17-.37v-.05c1.15-5.07,11.15-6.47,22.26-3.12a46,46,0,0,1,7,2.72A75.49,75.49,0,0,0,90.52,86.1v0Z"/><path class="c" d="M110.17,117.19a23.91,23.91,0,0,1-37.62-1.52,44.24,44.24,0,0,0,16.27,4.78,41.45,41.45,0,0,0,21.35-3.26Z"/><path class="c" d="M111.85,106.83c-3.06,5.21-11.39,9.07-21.2,9.24-6.6.12-12.6-1.46-16.8-4.06h-.06a26.86,26.86,0,0,0-10-3.06l-1.2-.13a21.26,21.26,0,0,1,6.31-.87,18,18,0,0,1,7.82,1.49c2.94,2,8.43,3.42,14.69,3.42,5.42,0,10.26-1,13.38-2.64,1.2-.47,2.47-1,3.76-1.66s2.26-1.15,3.28-1.73Z"/><path class="c" d="M111.35,96.25a5.27,5.27,0,0,1,.13,1c.28,5.79-8.86,10.79-20.35,11.14-8.41.25-15.81-2-19.29-5.57a17.43,17.43,0,0,0-7.67-2.92,20.59,20.59,0,0,0-5-.15,12.72,12.72,0,0,1,7.06-1.87,12.71,12.71,0,0,1,7,1.86c2.88,2.59,9.82,4.45,17.9,4.5,10.65.07,19.33-3,19.33-6.9v0c.39-.31.78-.76.78-1l0,0Z"/><path class="c" d="M110.93,87.35a4.71,4.71,0,0,1,0,.53c0,6.53-9.56,11.86-21.27,11.86-7.67,0-14.41-2.28-18.15-5.69-2.83-2.16-8.82-3.66-15.72-3.66-1.35,0-2.67.06-3.93.17,1.22-2.72,8.36-3.59,16.41-1.92A31.51,31.51,0,0,1,79.57,93a34.32,34.32,0,0,0,12.75,2.22,33.78,33.78,0,0,0,13.1-2.37h0c3.25-1.43,5.25-3.38,5.25-5.53h.24Z"/><path class="e" d="M25.08,108.18a5.59,5.59,0,0,0,1.08.22,5.59,5.59,0,0,1-1.08-.22"/></svg>