<?xml version="1.0" standalone="no"?>
<!DOCTYPE svg PUBLIC "-//W3C//DTD SVG 20010904//EN"
 "http://www.w3.org/TR/2001/REC-SVG-20010904/DTD/svg10.dtd">
<svg version="1.0" xmlns="http://www.w3.org/2000/svg"
 width="337.000000pt" height="337.000000pt" viewBox="0 0 337.000000 337.000000"
 preserveAspectRatio="xMidYMid meet">
<metadata>
Created by potrace 1.14, written by Peter Selinger 2001-2017
</metadata>
<g transform="translate(0.000000,337.000000) scale(0.100000,-0.100000)"
fill="#000000" stroke="none">
<path d="M1635 2329 c-139 -23 -244 -77 -340 -173 -119 -120 -165 -240 -170
-446 -8 -345 138 -569 426 -650 100 -28 276 -35 384 -14 81 16 237 65 288 91
l27 14 0 269 0 270 -253 0 -254 0 0 -75 1 -75 168 0 c105 0 168 -4 169 -10 0
-5 0 -48 0 -95 0 -47 0 -112 0 -145 l-1 -59 -66 -21 c-175 -54 -379 -41 -498
31 -70 42 -101 74 -142 141 -40 66 -50 94 -67 193 -45 258 46 482 234 574 169
82 425 54 614 -68 22 -14 46 -32 53 -38 33 -31 40 -16 40 86 l0 100 -77 30
c-133 54 -224 73 -361 76 -69 1 -147 -1 -175 -6z"/>
<path d="M2 1688 l3 -633 260 1 c364 0 415 9 531 86 105 70 156 170 155 309 0
147 -81 259 -220 307 l-50 17 57 45 c69 56 103 118 106 201 5 113 -41 196
-136 245 -78 40 -123 45 -421 50 l-287 5 2 -633z m542 472 c89 -18 126 -65
126 -159 0 -71 -34 -129 -95 -161 -46 -23 -60 -25 -227 -28 l-177 -4 -3 177
c-2 133 0 179 9 184 20 11 306 4 367 -9z m85 -509 c49 -15 103 -55 125 -93 15
-24 20 -52 20 -112 1 -97 -19 -144 -79 -187 -64 -46 -131 -57 -339 -59 l-186
-1 0 235 0 235 213 -4 c116 -2 227 -8 246 -14z"/>
<path d="M2547 2313 c-3 -4 -5 -288 -5 -630 0 -463 3 -623 11 -624 7 -1 44 -2
82 -3 l70 -1 5 235 5 235 115 1 c222 2 316 28 407 112 97 89 133 176 129 316
-5 175 -89 280 -269 338 -53 17 -97 21 -303 25 -133 2 -244 1 -247 -4z m430
-147 c71 -10 146 -50 176 -94 70 -103 50 -255 -44 -336 -56 -47 -121 -63 -271
-65 l-128 -2 0 250 c0 157 4 251 10 253 17 5 206 1 257 -6z"/>
</g>
</svg>
